<svg width="477" height="801" viewBox="0 0 477 801" fill="none" xmlns="http://www.w3.org/2000/svg">
<path d="M-172.465 270.89C-223.099 422.182 -228.009 588.147 -57.6875 648.742C30.1297 679.978 225.168 679.114 256.149 560.798C298.861 397.754 107.736 419.17 45.0911 347.692C2.14279 298.713 63.9652 205.307 -26.6998 167.621C-98.4728 137.825 -151.428 208.007 -172.465 270.89Z" fill="#D9D9D9"/>
<path d="M220.513 893.198C220.456 893.458 86.049 864.378 -79.6843 828.232C-245.418 792.087 -379.727 762.561 -379.671 762.302C-379.614 762.042 -245.243 791.115 -79.4739 827.268C86.2953 863.421 220.573 892.92 220.513 893.198Z" fill="#263238"/>
<path d="M348.154 350.922C342.99 363.819 334.211 374.879 322.947 382.677C311.684 390.476 298.454 394.654 284.961 394.673C271.469 394.693 258.333 390.553 247.247 382.787C236.161 375.021 227.634 363.986 222.763 351.103L190.444 349.28L218.212 323.553C218.558 313.372 221.072 303.363 225.577 294.235C230.082 285.107 236.467 277.083 244.281 270.728C252.095 264.374 261.147 259.845 270.798 257.462C280.449 255.078 290.463 254.898 300.133 256.935C309.802 258.972 318.891 263.175 326.757 269.248C334.623 275.321 341.074 283.115 345.655 292.08C350.235 301.044 352.833 310.961 353.265 321.129C353.697 331.296 351.952 341.467 348.154 350.922Z" fill="#FE6D37"/>
<path d="M299.983 354.112C305.334 355.473 310.784 349.299 313.506 338.372C318.14 319.8 308.697 302.937 290.633 298.415C272.569 293.892 255.693 304.121 251.079 322.601C246.667 340.328 256.426 356.521 274.04 360.946C278.807 362.038 283.774 361.935 288.525 360.647L289.035 363.4C283.886 364.825 278.498 364.981 273.311 363.856C254.217 359.051 243.642 341.339 248.46 322.01C253.469 301.888 271.707 290.77 291.322 295.689C310.649 300.546 321.089 318.792 316.029 339.058C312.897 351.605 306.141 358.505 299.001 356.715C294.987 355.703 292.521 351.902 293.622 346.858L294.611 342.838C292.392 345.706 289.408 347.848 286.034 348.995C282.66 350.143 279.045 350.245 275.641 349.289C273.153 348.71 270.811 347.614 268.76 346.067C266.709 344.521 264.991 342.557 263.711 340.294C262.43 338.032 261.615 335.519 261.313 332.908C261.012 330.297 261.232 327.644 261.959 325.11C264.753 313.849 274.537 307.396 285.21 310.073C288.6 310.806 291.693 312.55 294.105 315.09C296.516 317.629 298.139 320.852 298.773 324.358L301.241 314.424L304.222 315.172L296.387 346.606C295.422 350.514 297.16 353.419 299.983 354.112ZM265.103 325.795C264.358 328.994 264.547 332.335 265.645 335.399C266.743 338.462 268.701 341.111 271.273 343.012C273.845 344.914 276.916 345.982 280.1 346.083C283.283 346.184 286.437 345.313 289.164 343.58C291.892 341.848 294.071 339.33 295.427 336.344C296.783 333.359 297.256 330.038 296.787 326.802C296.317 323.565 294.925 320.556 292.787 318.153C290.649 315.75 287.86 314.062 284.77 313.299C282.697 312.73 280.527 312.606 278.393 312.934C276.26 313.262 274.209 314.035 272.366 315.205C270.524 316.376 268.929 317.92 267.679 319.741C266.43 321.562 265.554 323.623 265.103 325.795Z" fill="white"/>
<path d="M187.968 357.094C184.97 355.391 175.315 371.955 175.412 367.197C175.508 362.439 189.474 348.292 186.276 346.642C182.114 344.492 172.339 362.039 171.41 363.449C170.481 364.859 168.467 363.565 169.359 362.322C170.668 360.548 183.954 341.493 179.882 339.362C177.62 338.169 175.87 342.566 175.87 342.566C175.87 342.566 164.705 361.307 162.812 360.234C160.919 359.16 167.102 347.9 169.453 344.197C171.804 340.495 171.06 338.04 168.684 338.318C167.057 338.527 159.602 349.49 157.375 353.142C155.148 356.794 149.162 366.893 148.192 359.512C147.223 352.132 143.737 346.884 141.841 346.082C141.385 345.962 140.902 345.991 140.459 346.165C140.016 346.339 139.634 346.649 139.367 347.053C139.099 347.457 138.958 347.935 138.964 348.421C138.97 348.906 139.122 349.376 139.4 349.766C140.499 352.016 141.287 354.418 141.74 356.901C142.181 358.876 142.296 360.917 142.08 362.939C141.683 367.003 140.901 371.023 139.745 374.941L139.502 376.054L106.275 426.04L94.2664 367.082C92.352 339.349 61.1938 331.427 61.1938 331.427L30.7945 321.32C20.5203 314.397 7.79372 312.418 -0.0943392 315.011C-5.06483 316.736 -9.63688 319.523 -13.5087 323.186C-17.3805 326.849 -20.464 331.306 -22.5556 336.261C-37.6789 371.079 -91.038 495.938 -105.496 552.563C-108.123 558.497 -110.44 564.567 -112.436 570.749C-115.203 580.5 -114.357 580.762 -113.214 580.876C-110.105 581.204 -107.632 563.909 -106.128 567.889C-104.624 571.87 -111.451 588.759 -108.201 588.963C-103.811 589.201 -101.725 571.006 -101.393 569.485C-101.062 567.965 -98.9569 568.327 -99.2922 569.691C-99.7209 571.657 -104.387 592.359 -100.218 592.666C-97.921 592.837 -97.9436 588.538 -97.9436 588.538C-97.9436 588.538 -95.0247 568.854 -93.0534 569.051C-91.0822 569.248 -92.3894 580.852 -93.131 584.77C-93.8725 588.688 -92.365 590.493 -90.3783 589.411C-89.0818 588.645 -86.5911 576.793 -85.9475 572.893C-85.3039 568.992 -83.7856 558.405 -80.4207 564.21C-77.0558 570.014 -72.3215 573.164 -70.4414 573.089C-70.0154 573.02 -69.6187 572.818 -69.3061 572.509C-68.9934 572.201 -68.7801 571.801 -68.6955 571.366C-68.6109 570.931 -68.6591 570.481 -68.8336 570.078C-69.0081 569.676 -69.3002 569.341 -69.6697 569.119C-71.3708 567.641 -72.8657 565.93 -74.1133 564.031C-75.135 562.574 -75.9193 560.953 -76.436 559.231C-76.5963 558.672 -76.7108 558.161 -76.8613 557.643C-73.8124 546.942 -47.3026 455.082 -17.452 394.685L-12.7339 387.379C-12.4384 401.043 -20.0991 427.192 -29.2515 437.222C-44.3088 453.87 -53.6427 500.811 -53.6427 500.811L45.8738 526.653C45.8738 526.653 48.8505 509.293 52.7588 487.143L64.6138 422.083L67.5632 409.768L68.3135 408.572C71.4221 417.623 75.2591 429.203 79.901 443.912C95.3842 492.807 127.725 445.677 127.725 445.677L162.637 388.054C169.773 381.426 176.563 374.411 182.976 367.04C189.821 358.353 189.061 357.78 187.968 357.094Z" fill="#E5BAAB"/>
<path d="M60.1478 333.375C60.4409 329.786 65.4187 315.68 65.4187 315.68C65.4187 315.68 78.5492 317.533 82.6028 304.643C86.6564 291.754 93.4432 261.412 93.4432 261.412L73.1705 243.799L42.5488 257.325L32.2897 271.135L33.7785 306.429L30.009 323.713L60.1478 333.375Z" fill="#E5BAAB"/>
<path d="M87.4274 281.314C87.5375 281.241 87.5407 280.795 87.0748 280.169C86.5235 279.381 85.738 278.8 84.8346 278.512C83.9312 278.224 82.9579 278.244 82.0587 278.57C81.3807 278.83 81.0622 279.168 81.1278 279.299C81.1933 279.43 82.7886 279.02 84.4913 279.586C84.7117 279.652 84.926 279.738 85.1319 279.842C84.8502 279.925 84.5938 280.082 84.3883 280.298C84.1829 280.513 84.0357 280.781 83.9617 281.072C83.8878 281.363 83.8896 281.669 83.967 281.957C84.0444 282.246 84.1947 282.507 84.4027 282.715C84.6106 282.922 84.8689 283.069 85.1514 283.14C85.434 283.211 85.7307 283.204 86.0116 283.12C86.2926 283.035 86.5479 282.876 86.7517 282.658C86.9554 282.441 87.1005 282.172 87.1722 281.88C87.2509 281.692 87.2948 281.491 87.3016 281.287C87.3016 281.287 87.3613 281.358 87.4274 281.314Z" fill="#263238"/>
<path d="M68.0681 276.432C68.1961 276.362 68.1853 275.894 67.7334 275.29C67.1863 274.498 66.4032 273.912 65.5004 273.618C64.5899 273.332 63.6113 273.35 62.7034 273.669C62.0434 273.933 61.7249 274.271 61.7904 274.402C61.856 274.533 63.4293 274.138 65.1539 274.689C65.4323 274.783 65.7025 274.901 65.9621 275.04C65.7172 275.1 65.488 275.216 65.2917 275.379C65.0954 275.543 64.9372 275.75 64.829 275.984C64.7208 276.219 64.6654 276.475 64.667 276.733C64.6686 276.991 64.7272 277.245 64.8383 277.475C64.9495 277.705 65.1102 277.905 65.3085 278.061C65.5068 278.217 65.7374 278.323 65.983 278.373C66.2286 278.423 66.4827 278.415 66.7262 278.349C66.9697 278.283 67.1962 278.161 67.3887 277.993C67.6007 277.794 67.7597 277.542 67.8504 277.262C67.9411 276.982 67.9604 276.684 67.9063 276.396L68.0681 276.432Z" fill="#263238"/>
<path d="M70.5406 293.232C71.5369 293.228 72.5285 293.346 73.4944 293.584C73.9436 293.682 74.3929 293.78 74.5676 293.41C74.7587 292.924 74.8026 292.392 74.6935 291.884C74.611 290.622 74.5307 289.264 74.4063 287.936C74.0902 284.475 74.0193 280.993 74.1941 277.515C74.4498 278.503 74.5946 279.518 74.6256 280.543C74.7985 282.426 74.9874 285.012 75.1516 287.884L75.367 291.817C75.4774 292.456 75.3795 293.117 75.0883 293.699C74.9822 293.844 74.8443 293.962 74.686 294.042C74.5277 294.123 74.3536 294.163 74.1781 294.161C73.9125 294.15 73.6513 294.093 73.4054 293.992C72.4212 293.866 71.4584 293.611 70.5406 293.232Z" fill="#263238"/>
<path d="M64.347 293.493C65.6493 294.341 68.4712 297.715 72.0368 298.628C71.1709 299.383 70.0854 299.816 68.9582 299.856C67.831 299.896 66.7291 299.541 65.8331 298.849C62.5156 296.28 64.347 293.493 64.347 293.493Z" fill="#EFEDE9"/>
<path d="M65.4188 315.68C59.4692 313.899 54.1588 310.403 50.1106 305.6C50.1106 305.6 51.569 316.176 64.3377 318.825L65.4188 315.68Z" fill="#D78776"/>
<path d="M106.312 243.664C105.568 242.539 104.56 241.626 103.379 241.009C102.199 240.392 100.884 240.09 99.553 240.131C96.9031 240.236 94.2631 240.564 91.6592 241.11C89.0357 241.642 86.326 241.223 83.9929 239.923C80.9517 237.9 79.9156 233.847 77.5316 231.054C76.4783 229.83 75.1724 228.864 73.7071 228.224C72.2417 227.585 70.653 227.288 69.0544 227.355C67.4558 227.422 65.8866 227.851 64.4588 228.612C63.031 229.373 61.7798 230.446 60.7944 231.755C58.6733 234.576 57.3797 238.782 54.1212 239.567C51.4324 240.243 48.8741 238.423 46.4945 236.99C44.3127 235.621 41.7695 234.972 39.2016 235.128C37.9192 235.242 36.6911 235.734 35.6635 236.543C34.6359 237.352 33.8523 238.445 33.406 239.692C32.7526 241.998 33.6329 244.521 33.0474 246.86C32.159 250.416 28.3425 252.206 24.9632 253.373C21.5839 254.54 17.7463 255.996 16.3848 259.39C15.9502 260.882 15.872 262.455 16.1567 263.976C16.4415 265.496 17.0807 266.918 18.0199 268.12C19.8995 270.51 21.656 273 23.2822 275.581C24.6675 278.292 25.0594 281.933 23.1073 284.324C22.1153 285.507 20.6269 286.289 20.0158 287.71C18.9666 290.104 20.8258 292.627 22.7611 294.37C24.6209 296.308 26.8526 297.826 29.3179 298.831C30.3142 299.172 31.3634 299.328 32.4172 299.293C33.0615 304.971 33.1151 309.645 33.1151 309.645C34.4728 313.69 37.0209 302.007 37.0209 302.007C37.0209 302.007 40.5223 290.959 39.7135 286.295C39.7135 286.295 32.6782 287.48 33.1711 274.863C33.3994 268.637 42.8408 267.122 44.0828 274.892L49.573 276.303C49.573 276.303 54.0344 252.739 65.947 259.572C86.9596 271.635 100.691 266.761 106.38 248.186C106.719 247.476 106.89 246.696 106.878 245.909C106.866 245.123 106.672 244.353 106.312 243.664Z" fill="#263238"/>
<path d="M40.0432 282.539C40.0432 282.539 39.8311 282.649 39.4852 282.767C38.9947 282.896 38.4772 282.825 38.0414 282.569C37.4076 281.995 36.9354 281.255 36.673 280.427C36.4106 279.598 36.3673 278.71 36.5475 277.853C36.668 276.871 37.0024 275.928 37.5257 275.094C37.6835 274.754 37.9186 274.458 38.2109 274.23C38.5031 274.003 38.8437 273.851 39.2033 273.789C39.4332 273.763 39.6636 273.82 39.8549 273.95C40.0463 274.081 40.1868 274.276 40.2523 274.503C40.3452 274.854 40.2428 275.064 40.2927 275.095C40.3425 275.125 40.5707 274.942 40.5461 274.451C40.5305 274.162 40.4166 273.89 40.2245 273.681C40.0944 273.54 39.9379 273.427 39.7642 273.349C39.5906 273.271 39.4031 273.23 39.2128 273.227C38.7584 273.263 38.3184 273.415 37.9336 273.671C37.5488 273.926 37.2316 274.277 37.0114 274.69C36.3884 275.604 35.9849 276.655 35.8346 277.755C35.6236 278.76 35.7041 279.802 36.0662 280.752C36.4282 281.701 37.0557 282.516 37.8702 283.095C38.1592 283.253 38.4828 283.334 38.812 283.332C39.1411 283.329 39.4655 283.242 39.7561 283.079C39.9987 282.743 40.0971 282.551 40.0432 282.539Z" fill="#D78776"/>
<path d="M50.5851 500.909L11.3622 489.052L-48.0371 470.794L-114.419 807.621L-61.7404 818.372C-61.7404 818.372 -60.9315 814.663 -59.6255 808.07L-30.6646 823.478C-30.6646 823.478 22.1602 725.41 41.7481 684.707C58.044 650.728 50.5851 500.909 50.5851 500.909ZM-48.8091 755.799C-32.7355 678.215 -6.82005 554.209 -2.21319 538.351C-2.21319 538.351 3.64318 652.793 1.91873 661.994C0.88505 667.597 -27.078 717.527 -48.8091 755.799Z" fill="#263238"/>
<path d="M-2.79725 537.836C-2.93876 537.708 -1.07785 535.821 0.951669 532.126C3.49319 527.254 5.30112 522.02 6.31279 516.607C7.68796 510.301 8.49659 504.436 9.55443 500.276C9.93184 498.631 10.3929 497.007 10.9358 495.409C11.0925 494.781 11.3442 494.18 11.6817 493.629C11.8434 493.665 11.1195 496.207 10.2175 500.343C9.31557 504.478 8.62284 510.33 7.29933 516.744C6.27058 522.263 4.32345 527.57 1.5442 532.43C0.669813 533.884 -0.345946 535.244 -1.48716 536.489C-1.84867 537.009 -2.29149 537.464 -2.79725 537.836Z" fill="#455A64"/>
<path d="M0.899996 494.211C0.899996 494.211 1.17048 493.921 1.79808 493.805C2.71537 493.659 3.64852 493.862 4.42162 494.377C5.0347 494.738 5.53085 495.276 5.85028 495.924C6.1697 496.573 6.29878 497.306 6.22194 498.034C6.17734 498.951 5.84109 499.832 5.26492 500.541C4.68874 501.251 3.90459 501.748 3.03313 501.958C2.16167 502.167 1.25118 502.077 0.441796 501.701C-0.367583 501.325 -1.031 500.685 -1.44638 499.877C-1.81475 499.252 -1.99665 498.526 -1.96987 497.79C-1.94309 497.055 -1.70878 496.34 -1.29557 495.733C-0.796747 494.93 -0.0389857 494.331 0.842533 494.043C1.4643 493.868 1.82367 493.946 1.82546 494.025C0.795745 494.418 -0.0768748 495.16 -0.647338 496.127C-0.926771 496.619 -1.07137 497.178 -1.06547 497.744C-1.05957 498.311 -0.90341 498.862 -0.613883 499.34C-0.308956 499.985 0.198771 500.504 0.828091 500.812C1.45741 501.121 2.17194 501.202 2.85732 501.043C3.54271 500.883 4.15934 500.493 4.60856 499.933C5.05778 499.374 5.31363 498.678 5.33514 497.957C5.39906 497.397 5.31721 496.833 5.09806 496.32C4.87891 495.808 4.53036 495.367 4.08825 495.043C3.1538 494.398 2.02862 494.104 0.899996 494.211Z" fill="#455A64"/>
<path d="M50.7963 518.323C49.5214 518.925 48.1167 519.162 46.731 519.01C43.3439 518.918 40.1142 517.592 37.6156 515.269C35.117 512.945 33.5113 509.775 33.0838 506.32C32.798 504.928 32.8868 503.476 33.3407 502.122C33.5204 502.161 33.3464 503.735 33.8435 506.117C34.4828 509.297 36.0524 512.187 38.3426 514.403C40.7078 516.541 43.6671 517.865 46.8151 518.193C49.2356 518.488 50.7608 518.141 50.7963 518.323Z" fill="#455A64"/>
<path d="M-49.9975 769.276C-49.9254 769.066 -49.831 768.865 -49.7162 768.676L-48.8265 766.928C-47.9854 765.402 -46.815 763.228 -45.3314 760.482C-42.2199 754.847 -37.7556 746.806 -32.2794 736.888C-26.8033 726.97 -20.1473 715.095 -12.8227 701.966C-9.15139 695.404 -5.29543 688.513 -1.30693 681.359L4.83103 670.478C5.81682 668.634 6.99848 666.755 7.92226 664.936C8.31154 662.88 8.49578 660.791 8.47214 658.703C8.48312 650.021 8.12797 641.551 7.74403 633.386C7.36008 625.22 6.84359 617.317 6.36211 609.771C5.38702 594.736 4.3799 581.228 3.54291 569.874C2.70591 558.521 2.00083 549.411 1.5004 542.988C1.27691 539.87 1.11358 537.425 0.984324 535.688L0.885639 533.723C0.85979 533.504 0.857692 533.282 0.879395 533.062C0.930818 533.273 0.965661 533.488 0.983577 533.706C1.04823 534.186 1.11647 534.823 1.21031 535.601C1.3755 537.347 1.61475 539.788 1.93618 542.889C2.42268 549.29 3.30341 558.457 4.30439 569.749C5.30536 581.041 6.40816 594.628 7.3554 609.619C7.86293 617.131 8.38347 625.016 8.79122 633.245C9.19897 641.474 9.63814 649.904 9.53506 658.663C9.52015 659.767 9.49134 660.848 9.40456 661.937C9.39074 662.491 9.33918 663.045 9.25031 663.593C9.19977 664.175 9.07466 664.749 8.87822 665.299C7.92387 667.345 6.8105 669.084 5.76272 670.953L-0.375257 681.834C-4.39565 688.962 -8.26954 695.849 -11.9588 702.407L-31.6191 737.227C-37.2309 747.076 -41.777 755.06 -44.9563 760.661L-48.637 767.008C-49.0283 767.68 -49.3514 768.212 -49.6142 768.64C-49.7231 768.863 -49.8514 769.076 -49.9975 769.276Z" fill="#455A64"/>
<path d="M21.8717 665.277C18.4516 665.363 15.037 665.08 11.6833 664.435C8.28073 664.149 4.92161 663.495 1.66166 662.482C5.08079 662.408 8.49362 662.696 11.846 663.343C15.2484 663.629 18.6082 664.277 21.8717 665.277Z" fill="#455A64"/>
<path d="M17.1127 670.612C12.1544 668.723 7.4796 666.141 3.21851 662.938C5.75803 663.729 8.18217 664.858 10.4296 666.298C12.8361 667.424 15.0833 668.875 17.1127 670.612Z" fill="#455A64"/>
<path d="M44.7345 659.015C45.0057 659.178 45.2465 659.388 45.4461 659.637C46.0507 660.335 46.4809 661.175 46.7002 662.086C47.4251 664.459 46.9401 668.064 45.9622 672.202C44.9894 677.18 43.0533 681.919 40.2697 686.133C38.5357 688.627 36.3022 690.711 33.7228 692.243C32.3529 693.115 30.8122 693.656 29.2177 693.825C28.3452 693.859 27.4809 693.671 26.702 693.277C25.9048 692.856 25.2605 692.185 24.8611 691.36C24.2186 689.797 23.9762 688.086 24.157 686.388C24.2038 684.806 24.3408 683.227 24.5671 681.66C25.0209 678.703 25.7799 675.801 26.8315 673.003C28.6234 668.266 31.2725 663.911 34.6367 660.174C35.9025 658.65 37.5587 657.522 39.412 656.922C40.1295 656.725 40.8773 656.684 41.6069 656.803C42.3365 656.922 43.0318 657.198 43.6475 657.613C44.445 658.141 45.0184 658.958 45.2556 659.906C45.3453 660.224 45.3622 660.56 45.3049 660.888C45.3049 660.888 45.2479 660.545 45.0516 659.978C44.7298 659.169 44.1546 658.497 43.4165 658.067C42.8447 657.71 42.2042 657.484 41.5373 657.402C40.8704 657.32 40.1924 657.385 39.5481 657.593C37.8099 658.202 36.2663 659.299 35.0927 660.759C31.8877 664.483 29.3693 668.775 27.6635 673.418C26.6615 676.152 25.9428 678.985 25.5195 681.867C25.3069 683.392 25.1735 684.925 25.1198 686.462C24.9658 687.978 25.1758 689.505 25.7313 690.908C26.0413 691.531 26.531 692.038 27.134 692.36C27.7371 692.683 28.4243 692.806 29.1028 692.712C30.5462 692.569 31.9416 692.082 33.178 691.289C35.617 689.834 37.734 687.865 39.3884 685.514C42.1228 681.42 44.0696 676.831 45.1217 671.999C46.1937 668.838 46.5599 665.478 46.1926 662.17C45.9359 661.019 45.4384 659.943 44.7345 659.015Z" fill="#455A64"/>
<path d="M148.432 327.684L148.717 383.95L178.13 383.818L180.327 326.617L148.432 327.684Z" fill="#263238"/>
<path d="M151.154 331.173L150.969 376.126L176.651 375.238L177.366 330.187L151.154 331.173Z" fill="white"/>
<path d="M166.579 380.075C166.467 380.605 166.205 381.091 165.826 381.472C165.446 381.852 164.967 382.109 164.449 382.21C163.931 382.311 163.397 382.252 162.916 382.04C162.435 381.827 162.028 381.472 161.746 381.018C161.465 380.564 161.322 380.033 161.336 379.492C161.351 378.95 161.521 378.423 161.825 377.978C162.13 377.532 162.555 377.188 163.047 376.99C163.539 376.791 164.076 376.747 164.588 376.862C165.27 377.011 165.862 377.433 166.236 378.035C166.609 378.638 166.733 379.371 166.579 380.075Z" fill="#455A64"/>
<path d="M169.855 329.151L158.169 329.303L158.169 329.478L169.854 329.326L169.855 329.151Z" fill="#455A64"/>
<path d="M175.242 333.655L152.716 333.95L152.708 352.448L175.235 352.154L175.242 333.655Z" fill="#F0F0F0"/>
<path d="M152.862 354.586L153.126 361.229L175.253 360.849L175.254 353.68L152.862 354.586Z" fill="#E0E0E0"/>
<path d="M153.297 363.812L153.137 373.782L175.096 372.957L175.088 363.416L153.297 363.812Z" fill="#EBEBEB"/>
<path d="M-14.4303 391.361C-15.7132 394.481 -17.6255 399.193 -19.8856 404.722C-7.72969 407.937 6.80584 411.806 22.615 416.051C39.2026 420.523 54.6123 424.7 67.0454 428.111L69.9814 414.045C57.52 410.764 42.5033 406.77 26.2351 402.386C11.2265 398.355 -2.67199 394.586 -14.4303 391.361Z" fill="#FE6D37"/>
<path d="M-18.5473 327.033C-21.9274 331.013 -25.0202 335.241 -27.8005 339.683C-14.5183 343.084 10.099 349.58 38.2635 357.16C63.3017 363.884 85.5268 369.955 99.4051 373.817C98.6135 368.422 97.4744 363.092 95.9952 357.862C82.1542 354.26 63.009 349.172 41.8836 343.496C17.2546 336.881 -4.61514 330.907 -18.5473 327.033Z" fill="#FE6D37"/>
<path d="M60.7065 331.418C59.532 332.434 58.2541 333.315 56.8958 334.045C66.3904 336.601 75.2961 339.01 83.2894 341.2C76.1997 336.978 68.6133 333.692 60.7065 331.418Z" fill="#FE6D37"/>
<path d="M-16.3611 483.764L49.9996 509.893L51.7509 501.863C38.5249 498.376 21.4939 493.865 3.07563 488.897L-16.3611 483.764Z" fill="#FE6D37"/>
<path d="M71.1649 421.996L77.9229 416.126L70.0532 414.06L71.1649 421.996Z" fill="#FE6D37"/>
<path d="M-38.0666 448.121C-40.275 452.982 -42.4169 457.624 -44.1809 461.397C-30.6274 464.936 -12.71 469.698 6.95397 474.997C24.985 479.843 41.5327 484.326 54.5866 487.911L57.5266 473.826C44.5661 470.417 28.2678 466.085 10.5921 461.337C-7.90794 456.311 -24.8828 451.715 -38.0666 448.121Z" fill="#FE6D37"/>
<path d="M-44.5222 462.1C-46.8326 466.997 -48.3855 470.233 -48.3855 470.233L-24.2837 480.56C-15.7612 482.826 -6.49211 485.295 3.19614 487.913C21.6724 492.875 38.5934 497.459 51.787 501.094L54.3549 488.715C41.2727 485.26 24.6868 480.866 6.62389 475.994C-13.0442 470.713 -31.0092 465.824 -44.5222 462.1Z" fill="#FE6D37"/>
<path d="M-31.8119 433.943C-33.6232 438.192 -35.6312 442.824 -37.6886 447.252C-24.4765 450.716 -7.55736 455.222 10.8829 460.176C28.5586 464.925 44.8008 469.341 57.715 472.877L60.6551 458.792C47.8204 455.41 31.8414 451.167 14.5211 446.516C-2.79928 441.864 -18.9817 437.519 -31.8119 433.943Z" fill="#FE6D37"/>
<path d="M-35.8131 353.807C-38.5984 359.242 -40.7466 363.999 -42.2922 367.547C-32.2181 370.036 -3.50011 377.581 30.336 386.69C55.9273 393.553 78.5257 399.725 92.346 403.594L101.661 395.407C101.661 395.407 101.554 393.655 101.306 390.822C88.379 387.517 63.033 380.824 33.9063 372.995C2.77144 364.534 -24.0691 357.184 -35.8131 353.807Z" fill="#FE6D37"/>
<path d="M-42.345 367.789C-43.5613 370.69 -44.2273 372.449 -44.2273 372.449L-12.7461 387.435C-12.7461 387.435 -13.1986 388.56 -14.0029 390.522C-2.22025 393.636 11.6944 397.331 26.6172 401.324C46.7983 406.755 65.1348 411.667 78.7395 415.489L91.9532 404.014C78.0183 400.411 55.559 394.464 30.2553 387.663C-3.73266 378.56 -32.4178 370.692 -42.345 367.789Z" fill="#FE6D37"/>
<path d="M-20.2236 405.581C-21.9167 409.719 -23.7608 414.29 -25.665 418.965C-13.2036 422.246 2.16837 426.337 18.7062 430.779C35.6532 435.33 51.2925 439.576 63.9372 443.053L66.8731 428.986C54.3219 425.686 38.9539 421.576 22.3982 417.13C6.55314 412.878 -8.02012 408.923 -20.2236 405.581Z" fill="#FE6D37"/>
<path d="M-28.1114 340.159C-30.9721 344.644 -33.4334 349.197 -35.6161 353.423C-23.7113 356.407 3.13198 363.486 34.3369 371.884C63.3419 379.667 88.5315 386.56 101.404 390.202C101.062 386.243 100.454 380.573 99.5152 374.521C85.5803 370.918 63.193 364.987 37.975 358.224C9.68474 350.616 -14.9559 343.882 -28.1114 340.159Z" fill="#FE6D37"/>
<path d="M-25.9949 419.787C-27.129 422.57 -28.2671 425.372 -29.3752 428.122C-30.0267 429.728 -30.7344 431.42 -31.4762 433.181C-18.6235 436.567 -2.59474 440.84 14.7795 445.503C32.1538 450.167 48.0406 454.486 60.829 457.994L63.765 443.928C51.0561 440.574 35.3826 436.398 18.4176 431.843C1.82594 427.389 -13.4939 423.232 -25.9949 419.787Z" fill="#FE6D37"/>
<path d="M36.2334 328.489C34.0417 326.135 32.1222 323.526 30.5124 320.714C30.5124 320.714 14.7371 308.978 -0.608173 313.655C-3.00508 314.41 -5.29118 315.507 -7.39922 316.914C4.26569 319.963 19.4122 323.966 36.2334 328.489Z" fill="#FE6D37"/>
<path d="M-8.25767 317.485C-11.8746 320.045 -15.1695 323.06 -18.0645 326.458C-4.06175 330.095 17.7227 335.856 42.172 342.432C63.0678 348.038 81.9551 353.187 95.7336 356.989C94.8703 353.779 93.4408 350.768 91.5158 348.103C89.7933 346.098 87.8356 344.32 85.6864 342.811C76.6787 340.438 66.3934 337.709 55.4374 334.776C48.4357 337.62 42.2696 334.216 37.8157 330.039C19.9145 325.202 3.86589 320.847 -8.25767 317.485Z" fill="#FE6D37"/>
<path d="M-18.0646 326.458C-18.2349 326.641 -18.3961 326.833 -18.5476 327.033C-4.61537 330.907 17.2544 336.881 41.8654 343.492C62.9908 349.168 82.144 354.219 95.9769 357.858L95.7156 356.985C81.937 353.183 63.0497 348.034 42.1539 342.428C17.7024 335.949 -4.00793 330.107 -18.0646 326.458Z" fill="#263238"/>
<path d="M83.2892 341.2C75.2959 339.01 66.3903 336.601 56.8956 334.045C56.3888 334.297 55.8848 334.537 55.3834 334.764C66.3933 337.709 76.7325 340.45 85.6324 342.799C84.9046 342.252 84.0969 341.726 83.2892 341.2Z" fill="#263238"/>
<path d="M-7.39098 316.877C-7.69109 317.045 -7.96335 317.257 -8.24954 317.448C3.87403 320.81 19.9226 325.165 37.7699 329.99C37.2398 329.486 36.7317 328.967 36.2237 328.448C19.4123 323.966 4.26583 319.963 -7.39098 316.877Z" fill="#263238"/>
<path d="M-27.7884 339.627C-27.8821 339.792 -27.9859 339.951 -28.0993 340.103C-14.9439 343.827 9.69678 350.561 37.9871 358.168C63.205 364.931 85.5923 370.863 99.5272 374.465C99.5717 374.261 99.4585 374.003 99.4172 373.761C85.5389 369.899 63.3138 363.828 38.2755 357.105C10.0989 349.58 -14.5184 343.084 -27.7884 339.627Z" fill="#263238"/>
<path d="M-35.6244 353.46L-35.8212 353.844C-24.0772 357.222 2.76336 364.571 34.0622 372.971C63.1889 380.8 88.5349 387.493 101.462 390.798C101.498 390.631 101.427 390.441 101.395 390.24C88.5233 386.597 63.3337 379.705 34.3287 371.922C3.13183 363.486 -23.7115 356.408 -35.6244 353.46Z" fill="#263238"/>
<path d="M-42.2922 367.547C-42.3081 367.66 -42.3324 367.772 -42.365 367.881C-32.4378 370.784 -3.75265 378.653 30.1414 387.755C55.4452 394.556 77.9043 400.503 91.8392 404.105L92.4179 403.61C78.5976 399.741 55.9991 393.569 30.4079 386.705C-3.40801 377.504 -32.126 369.959 -42.2922 367.547Z" fill="#263238"/>
<path d="M-14.0926 390.502C-14.1532 390.78 -14.218 391.077 -14.4305 391.361C-2.67214 394.586 11.2803 398.367 26.2349 402.386C42.5032 406.77 57.5738 410.775 69.9812 414.045L70.0176 413.878L69.9812 414.045L77.851 416.111L78.5739 415.472C64.953 411.724 46.5967 406.73 26.4515 401.307C11.6047 397.311 -2.30997 393.616 -14.0926 390.502Z" fill="#263238"/>
<path d="M-19.8858 404.722C-19.9505 405.019 -20.1051 405.296 -20.2237 405.581C-8.07407 408.911 6.55311 412.878 22.3263 417.115C38.9539 421.576 54.3398 425.69 66.8012 428.971L66.9913 428.099C54.5583 424.688 39.1485 420.511 22.5609 416.039C6.89551 411.826 -7.80174 407.921 -19.8858 404.722Z" fill="#263238"/>
<path d="M-25.6651 418.965C-25.7258 419.243 -25.7905 419.54 -25.9949 419.787C-13.5658 423.216 1.82593 427.389 18.4356 431.847C35.4006 436.401 51.074 440.577 63.783 443.932L63.9731 443.06C51.3284 439.584 35.6891 435.338 18.742 430.787C2.16832 426.337 -13.1498 422.258 -25.6651 418.965Z" fill="#263238"/>
<path d="M-31.4762 433.181L-31.824 433.999C-18.9816 437.519 -2.93308 441.874 14.509 446.571C31.9511 451.269 47.8083 455.466 60.643 458.848L60.821 458.032C48.0326 454.524 32.0918 450.192 14.7715 445.541C-2.54889 440.889 -18.6235 436.567 -31.4762 433.181Z" fill="#263238"/>
<path d="M-37.7007 447.307C-37.7573 447.567 -37.9438 447.818 -38.0583 448.084C-24.8647 451.719 -7.85386 456.323 10.6004 461.3C28.2761 466.048 44.5744 470.38 57.5349 473.789L57.729 472.899C44.8148 469.364 28.5726 464.947 10.8969 460.199C-7.56941 455.277 -24.4886 450.772 -37.7007 447.307Z" fill="#263238"/>
<path d="M-44.1726 461.36C-44.2292 461.619 -44.4116 461.852 -44.5222 462.1C-31.0091 465.824 -13.0441 470.713 6.67785 476.005C24.7408 480.877 41.3266 485.272 54.4089 488.727L54.5909 487.892C41.537 484.307 24.9893 479.824 6.95825 474.978C-12.7017 469.661 -30.6191 464.899 -44.1726 461.36Z" fill="#263238"/>
<path d="M-24.2297 480.571L-17.445 483.469L-16.3488 483.708L2.99575 488.918C21.4679 493.899 38.4451 498.398 51.6711 501.884L51.7789 501.908L51.9609 501.073C38.7673 497.438 21.7564 492.835 3.37006 487.892C-6.43815 485.306 -15.7073 482.838 -24.2297 480.571Z" fill="#263238"/>
<path d="M67.5374 427.752C67.2499 427.689 68.3559 416.663 70.0281 403.04C71.7003 389.417 73.2735 378.492 73.4891 378.539C73.7048 378.586 72.6707 389.628 70.9985 403.251C69.3262 416.874 67.833 427.778 67.5374 427.752Z" fill="#263238"/>
<path d="M78.03 374.031C78.2272 374.249 77.1067 375.676 75.4524 377.219C73.7982 378.762 72.4068 379.877 72.1916 379.655C71.9764 379.433 73.1351 377.918 74.7732 376.449C76.4113 374.98 77.8328 373.814 78.03 374.031Z" fill="#263238"/>
<path d="M49.053 428.267C49.1401 428.558 35.0002 432.973 17.4743 438.068C-0.0516718 443.162 -14.3102 447.085 -14.3793 446.798C-14.4485 446.511 -0.30857 442.096 17.1953 437.016C34.6993 431.936 48.9879 427.961 49.053 428.267Z" fill="#263238"/>
<path d="M49.307 441.688C47.2169 441.86 45.1193 441.87 43.0319 441.718L28.0455 441.383L13.0106 441.271C10.919 441.376 8.82492 441.309 6.74811 441.071C8.81461 440.666 10.9124 440.472 13.0106 440.494C16.8189 440.295 22.2252 440.192 28.1184 440.272C34.0116 440.353 39.3329 440.639 43.2197 440.943C45.2684 441.007 47.3054 441.256 49.307 441.688Z" fill="#263238"/>
<path d="M61.1199 330.731C60.8186 331.158 60.451 331.53 60.0322 331.834C58.9874 332.757 57.8736 333.592 56.7013 334.333C54.9416 335.509 52.9366 336.231 50.8582 336.439C48.3056 336.581 45.7705 336.028 43.5087 334.836C39.5042 332.661 36.0203 329.607 33.2998 325.888C32.4776 324.772 31.7407 323.591 31.0956 322.357C30.6424 321.5 30.456 320.974 30.518 320.949C30.58 320.923 31.6818 322.776 33.8484 325.444C36.6336 328.937 40.0652 331.824 43.9486 333.941C46.0551 335.089 48.4198 335.659 50.8165 335.594C52.7661 335.432 54.6614 334.824 56.3631 333.812C59.3385 331.994 61.0184 330.592 61.1199 330.731Z" fill="#263238"/>
</svg>
