<svg width="387" height="131" viewBox="0 0 387 131" fill="none" xmlns="http://www.w3.org/2000/svg">
<path d="M2.40506 71C1.73699 71 1.16913 70.7667 0.701476 70.3C0.233825 69.8333 0 69.2667 0 68.6V3.5C0 2.76667 0.233825 2.16667 0.701476 1.7C1.16913 1.23333 1.73699 1 2.40506 1H45.8966C46.6315 1 47.2327 1.23333 47.7004 1.7C48.168 2.16667 48.4018 2.76667 48.4018 3.5V10.5C48.4018 11.2333 48.168 11.8333 47.7004 12.3C47.2327 12.7 46.6315 12.9 45.8966 12.9H13.7289V31.9H43.8924C44.6272 31.9 45.2285 32.1333 45.6962 32.6C46.1638 33.0667 46.3976 33.6667 46.3976 34.4V41.4C46.3976 42.0667 46.1638 42.6333 45.6962 43.1C45.2285 43.5667 44.6272 43.8 43.8924 43.8H13.7289V68.6C13.7289 69.2667 13.4951 69.8333 13.0274 70.3C12.5598 70.7667 11.9585 71 11.2236 71H2.40506ZM81.0526 72C75.7081 72 71.1986 71.0667 67.5242 69.2C63.9166 67.3333 61.1441 64.7 59.2067 61.3C57.3361 57.9 56.2671 53.9333 55.9999 49.4C55.9331 48.2 55.8997 46.7333 55.8997 45C55.8997 43.2667 55.9331 41.8 55.9999 40.6C56.2671 36 57.3695 32.0333 59.3069 28.7C61.3111 25.3 64.117 22.6667 67.7246 20.8C71.399 18.9333 75.8417 18 81.0526 18C86.2636 18 90.6729 18.9333 94.2805 20.8C97.9549 22.6667 100.761 25.3 102.698 28.7C104.702 32.0333 105.838 36 106.105 40.6C106.172 41.8 106.206 43.2667 106.206 45C106.206 46.7333 106.172 48.2 106.105 49.4C105.838 53.9333 104.736 57.9 102.798 61.3C100.928 64.7 98.1553 67.3333 94.4809 69.2C90.8733 71.0667 86.3972 72 81.0526 72ZM81.0526 62.1C84.5934 62.1 87.3325 61 89.2699 58.8C91.2073 56.5333 92.2763 53.2333 92.4767 48.9C92.5435 47.9 92.5769 46.6 92.5769 45C92.5769 43.4 92.5435 42.1 92.4767 41.1C92.2763 36.8333 91.2073 33.5667 89.2699 31.3C87.3325 29.0333 84.5934 27.9 81.0526 27.9C77.5118 27.9 74.7728 29.0333 72.8353 31.3C70.8979 33.5667 69.829 36.8333 69.6286 41.1C69.5618 42.1 69.5284 43.4 69.5284 45C69.5284 46.6 69.5618 47.9 69.6286 48.9C69.829 53.2333 70.8979 56.5333 72.8353 58.8C74.7728 61 77.5118 62.1 81.0526 62.1ZM119.714 71C119.046 71 118.478 70.7667 118.01 70.3C117.542 69.8333 117.309 69.2667 117.309 68.6V21.5C117.309 20.7667 117.542 20.1667 118.01 19.7C118.478 19.2333 119.046 19 119.714 19H127.831C128.499 19 129.067 19.2333 129.534 19.7C130.069 20.1667 130.336 20.7667 130.336 21.5V25.6C131.872 23.4667 133.843 21.8333 136.248 20.7C138.72 19.5667 141.559 19 144.766 19H148.874C149.609 19 150.177 19.2333 150.578 19.7C151.046 20.1667 151.279 20.7333 151.279 21.4V28.6C151.279 29.2667 151.046 29.8333 150.578 30.3C150.177 30.7667 149.609 31 148.874 31H141.058C137.852 31 135.346 31.9 133.543 33.7C131.806 35.5 130.937 37.9667 130.937 41.1V68.6C130.937 69.2667 130.703 69.8333 130.236 70.3C129.768 70.7667 129.167 71 128.432 71H119.714ZM178.437 72C174.361 72 170.821 71.1 167.814 69.3C164.875 67.4333 162.603 64.8333 161 61.5C159.397 58.1 158.595 54.1 158.595 49.5V21.4C158.595 20.7333 158.829 20.1667 159.296 19.7C159.764 19.2333 160.332 19 161 19H169.818C170.553 19 171.121 19.2333 171.522 19.7C171.99 20.1667 172.224 20.7333 172.224 21.4V48.9C172.224 57.1667 175.865 61.3 183.146 61.3C186.62 61.3 189.36 60.2 191.364 58C193.435 55.8 194.47 52.7667 194.47 48.9V21.4C194.47 20.7333 194.704 20.1667 195.172 19.7C195.639 19.2333 196.207 19 196.875 19H205.694C206.362 19 206.93 19.2333 207.398 19.7C207.865 20.1667 208.099 20.7333 208.099 21.4V68.6C208.099 69.2667 207.865 69.8333 207.398 70.3C206.93 70.7667 206.362 71 205.694 71H197.577C196.842 71 196.241 70.7667 195.773 70.3C195.372 69.8333 195.172 69.2667 195.172 68.6V64.5C193.368 66.8333 191.13 68.6667 188.458 70C185.785 71.3333 182.445 72 178.437 72ZM223.742 71C223.074 71 222.506 70.7667 222.038 70.3C221.57 69.8333 221.337 69.2667 221.337 68.6V21.4C221.337 20.7333 221.57 20.1667 222.038 19.7C222.506 19.2333 223.074 19 223.742 19H231.558C232.226 19 232.794 19.2333 233.262 19.7C233.729 20.1667 233.963 20.7333 233.963 21.4V24.8C235.366 22.9333 237.237 21.3667 239.575 20.1C241.98 18.7667 244.819 18.0667 248.093 18C255.709 17.8667 261.02 20.8333 264.026 26.9C265.563 24.2333 267.768 22.1 270.64 20.5C273.58 18.8333 276.82 18 280.361 18C283.835 18 286.975 18.8 289.781 20.4C292.653 22 294.891 24.4333 296.495 27.7C298.165 30.9 299 34.9667 299 39.9V68.6C299 69.2667 298.766 69.8333 298.299 70.3C297.831 70.7667 297.263 71 296.595 71H288.378C287.71 71 287.142 70.7667 286.674 70.3C286.206 69.8333 285.973 69.2667 285.973 68.6V40.7C285.973 37.7 285.538 35.3333 284.67 33.6C283.801 31.8 282.632 30.5333 281.162 29.8C279.693 29.0667 278.056 28.7 276.252 28.7C274.782 28.7 273.313 29.0667 271.843 29.8C270.373 30.5333 269.171 31.8 268.235 33.6C267.3 35.3333 266.832 37.7 266.832 40.7V68.6C266.832 69.2667 266.598 69.8333 266.131 70.3C265.663 70.7667 265.095 71 264.427 71H256.21C255.475 71 254.874 70.7667 254.406 70.3C254.005 69.8333 253.805 69.2667 253.805 68.6V40.7C253.805 37.7 253.337 35.3333 252.402 33.6C251.467 31.8 250.264 30.5333 248.794 29.8C247.325 29.0667 245.755 28.7 244.084 28.7C242.548 28.7 241.045 29.1 239.575 29.9C238.105 30.6333 236.903 31.8667 235.967 33.6C235.032 35.3333 234.564 37.7 234.564 40.7V68.6C234.564 69.2667 234.331 69.8333 233.863 70.3C233.395 70.7667 232.827 71 232.159 71H223.742Z" fill="#FE6D37"/>
<path d="M314.395 71C313.73 71 313.164 70.7667 312.698 70.3C312.233 69.8333 312 69.2667 312 68.6V2.4C312 1.73334 312.233 1.16667 312.698 0.700004C313.164 0.233337 313.73 0 314.395 0H322.676C323.342 0 323.907 0.233337 324.373 0.700004C324.838 1.16667 325.071 1.73334 325.071 2.4V68.6C325.071 69.2667 324.838 69.8333 324.373 70.3C323.907 70.7667 323.342 71 322.676 71H314.395ZM347.687 90C347.154 90 346.689 89.8 346.29 89.4C345.891 89 345.691 88.5333 345.691 88C345.691 87.7333 345.691 87.4667 345.691 87.2C345.758 87 345.891 86.7333 346.09 86.4L353.873 67.9L334.715 22.6C334.449 21.9333 334.316 21.4667 334.316 21.2C334.383 20.6 334.615 20.1 335.015 19.7C335.414 19.2333 335.913 19 336.511 19H344.593C345.392 19 345.99 19.2 346.389 19.6C346.789 20 347.088 20.4333 347.288 20.9L360.558 53.6L374.228 20.9C374.428 20.3667 374.727 19.9333 375.126 19.6C375.525 19.2 376.124 19 376.922 19H384.905C385.437 19 385.902 19.2 386.302 19.6C386.767 20 387 20.4667 387 21C387 21.4 386.867 21.9333 386.601 22.6L358.363 88.1C358.097 88.6333 357.764 89.0667 357.365 89.4C356.966 89.8 356.368 90 355.569 90H347.687Z" fill="#1D1D1D"/>
<path d="M26 107.141C26 104.477 26.596 102.087 27.7883 99.9716C28.9805 97.8299 30.6003 96.1584 32.6478 94.9569C34.7211 93.7554 37.0148 93.1548 39.5288 93.1548C42.4833 93.1548 45.062 93.873 47.2651 95.3095C49.4681 96.7461 51.0749 98.7833 52.0857 101.421H47.8482C47.0966 99.7757 46.0081 98.509 44.5826 97.621C43.1831 96.7329 41.4985 96.2889 39.5288 96.2889C37.6368 96.2889 35.9393 96.7329 34.436 97.621C32.9328 98.509 31.7536 99.7757 30.8983 101.421C30.0431 103.04 29.6154 104.947 29.6154 107.141C29.6154 109.309 30.0431 111.215 30.8983 112.861C31.7536 114.48 32.9328 115.734 34.436 116.622C35.9393 117.51 37.6368 117.954 39.5288 117.954C41.4985 117.954 43.1831 117.523 44.5826 116.661C46.0081 115.773 47.0966 114.506 47.8482 112.861H52.0857C51.0749 115.473 49.4681 117.497 47.2651 118.933C45.062 120.344 42.4833 121.049 39.5288 121.049C37.0148 121.049 34.7211 120.461 32.6478 119.286C30.6003 118.085 28.9805 116.426 27.7883 114.31C26.596 112.195 26 109.805 26 107.141ZM56.03 110.001C56.03 107.807 56.4706 105.887 57.3518 104.242C58.233 102.57 59.4382 101.277 60.9672 100.363C62.5223 99.4493 64.2457 98.9922 66.1377 98.9922C68.0038 98.9922 69.6236 99.397 70.9972 100.207C72.3708 101.016 73.3946 102.035 74.0684 103.262V99.3448H77.645V120.814H74.0684V116.818C73.3686 118.071 72.319 119.116 70.9194 119.952C69.5459 120.762 67.9389 121.167 66.0988 121.167C64.2068 121.167 62.4963 120.696 60.9672 119.756C59.4382 118.816 58.233 117.497 57.3518 115.799C56.4706 114.102 56.03 112.169 56.03 110.001ZM74.0684 110.04C74.0684 108.421 73.7445 107.01 73.0965 105.809C72.4485 104.608 71.5674 103.693 70.4529 103.067C69.3644 102.414 68.1593 102.087 66.8375 102.087C65.5157 102.087 64.3106 102.401 63.222 103.027C62.1335 103.654 61.2653 104.568 60.6174 105.77C59.9694 106.971 59.6455 108.382 59.6455 110.001C59.6455 111.646 59.9694 113.083 60.6174 114.31C61.2653 115.512 62.1335 116.439 63.222 117.092C64.3106 117.719 65.5157 118.032 66.8375 118.032C68.1593 118.032 69.3644 117.719 70.4529 117.092C71.5674 116.439 72.4485 115.512 73.0965 114.31C73.7445 113.083 74.0684 111.659 74.0684 110.04ZM87.161 102.832C87.7831 101.604 88.6641 100.651 89.8046 99.9716C90.9709 99.2926 92.3833 98.953 94.0421 98.953V102.636H93.109C89.1437 102.636 87.161 104.803 87.161 109.139V120.814H83.6234V99.3448H87.161V102.832ZM99.953 95.858C99.2792 95.858 98.709 95.6229 98.2424 95.1528C97.7759 94.6827 97.5427 94.108 97.5427 93.429C97.5427 92.75 97.7759 92.1753 98.2424 91.7052C98.709 91.2351 99.2792 91 99.953 91C100.601 91 101.145 91.2351 101.586 91.7052C102.052 92.1753 102.286 92.75 102.286 93.429C102.286 94.108 102.052 94.6827 101.586 95.1528C101.145 95.6229 100.601 95.858 99.953 95.858ZM101.664 99.3448V120.814H98.1258V99.3448H101.664ZM111.347 115.878L106.993 126.416H104.622L107.46 115.878H111.347ZM139.331 106.749C140.317 106.906 141.211 107.311 142.014 107.964C142.844 108.617 143.491 109.426 143.957 110.393C144.45 111.359 144.696 112.391 144.696 113.488C144.696 114.872 144.346 116.126 143.646 117.249C142.947 118.346 141.923 119.221 140.575 119.874C139.253 120.5 137.686 120.814 135.872 120.814H125.764V93.5073H135.483C137.323 93.5073 138.891 93.8208 140.187 94.4476C141.483 95.0483 142.455 95.871 143.102 96.9158C143.751 97.9605 144.074 99.1359 144.074 100.442C144.074 102.061 143.634 103.406 142.752 104.477C141.897 105.522 140.757 106.279 139.331 106.749ZM129.302 105.3H135.25C136.908 105.3 138.191 104.908 139.098 104.124C140.006 103.341 140.459 102.257 140.459 100.873C140.459 99.4885 140.006 98.4045 139.098 97.621C138.191 96.8374 136.882 96.4456 135.172 96.4456H129.302V105.3ZM135.561 117.876C137.323 117.876 138.697 117.458 139.681 116.622C140.667 115.786 141.158 114.624 141.158 113.135C141.158 111.62 140.641 110.432 139.603 109.57C138.568 108.682 137.181 108.238 135.444 108.238H129.302V117.876H135.561ZM169.043 109.257C169.043 109.936 169.005 110.654 168.927 111.411H151.899C152.03 113.527 152.742 115.185 154.037 116.387C155.359 117.562 156.953 118.15 158.819 118.15C160.349 118.15 161.618 117.797 162.629 117.092C163.666 116.361 164.392 115.394 164.806 114.193H168.616C168.047 116.256 166.905 117.941 165.195 119.247C163.484 120.527 161.36 121.167 158.819 121.167C156.798 121.167 154.984 120.709 153.376 119.795C151.796 118.881 150.552 117.588 149.644 115.917C148.738 114.219 148.284 112.26 148.284 110.04C148.284 107.82 148.725 105.874 149.606 104.203C150.487 102.531 151.719 101.251 153.299 100.363C154.907 99.4493 156.746 98.9922 158.819 98.9922C160.841 98.9922 162.629 99.4361 164.184 100.324C165.739 101.212 166.932 102.44 167.761 104.007C168.616 105.548 169.043 107.298 169.043 109.257ZM165.389 108.512C165.389 107.154 165.092 105.992 164.495 105.025C163.899 104.033 163.083 103.289 162.046 102.792C161.035 102.27 159.908 102.009 158.664 102.009C156.875 102.009 155.347 102.583 154.076 103.733C152.832 104.882 152.12 106.475 151.938 108.512H165.389ZM177.252 91.8227V120.814H173.714V91.8227H177.252ZM185.107 95.858C184.434 95.858 183.863 95.6229 183.397 95.1528C182.93 94.6827 182.697 94.108 182.697 93.429C182.697 92.75 182.93 92.1753 183.397 91.7052C183.863 91.2351 184.434 91 185.107 91C185.756 91 186.3 91.2351 186.74 91.7052C187.207 92.1753 187.44 92.75 187.44 93.429C187.44 94.108 187.207 94.6827 186.74 95.1528C186.3 95.6229 185.756 95.858 185.107 95.858ZM186.818 99.3448V120.814H183.28V99.3448H186.818ZM196.502 115.878L192.148 126.416H189.777L192.615 115.878H196.502ZM231.795 93.5073V120.814H228.257V108.434H214.456V120.814H210.918V93.5073H214.456V105.496H228.257V93.5073H231.795ZM236.514 110.001C236.514 107.807 236.954 105.887 237.836 104.242C238.717 102.57 239.922 101.277 241.451 100.363C243.006 99.4493 244.729 98.9922 246.621 98.9922C248.488 98.9922 250.108 99.397 251.481 100.207C252.854 101.016 253.879 102.035 254.552 103.262V99.3448H258.129V120.814H254.552V116.818C253.852 118.071 252.803 119.116 251.403 119.952C250.03 120.762 248.422 121.167 246.583 121.167C244.69 121.167 242.98 120.696 241.451 119.756C239.922 118.816 238.717 117.497 237.836 115.799C236.954 114.102 236.514 112.169 236.514 110.001ZM254.552 110.04C254.552 108.421 254.229 107.01 253.58 105.809C252.932 104.608 252.052 103.693 250.937 103.067C249.848 102.414 248.643 102.087 247.321 102.087C245.999 102.087 244.794 102.401 243.706 103.027C242.617 103.654 241.749 104.568 241.101 105.77C240.453 106.971 240.129 108.382 240.129 110.001C240.129 111.646 240.453 113.083 241.101 114.31C241.749 115.512 242.617 116.439 243.706 117.092C244.794 117.719 245.999 118.032 247.321 118.032C248.643 118.032 249.848 117.719 250.937 117.092C252.052 116.439 252.932 115.512 253.58 114.31C254.229 113.083 254.552 111.659 254.552 110.04ZM267.645 103.302C268.345 102.074 269.382 101.056 270.755 100.246C272.155 99.4101 273.775 98.9922 275.614 98.9922C277.507 98.9922 279.217 99.4493 280.746 100.363C282.301 101.277 283.519 102.57 284.4 104.242C285.282 105.887 285.722 107.807 285.722 110.001C285.722 112.169 285.282 114.102 284.4 115.799C283.519 117.497 282.301 118.816 280.746 119.756C279.217 120.696 277.507 121.167 275.614 121.167C273.8 121.167 272.193 120.762 270.794 119.952C269.421 119.116 268.371 118.085 267.645 116.857V131H264.107V99.3448H267.645V103.302ZM282.107 110.001C282.107 108.382 281.783 106.971 281.135 105.77C280.486 104.568 279.606 103.654 278.491 103.027C277.403 102.401 276.198 102.087 274.876 102.087C273.58 102.087 272.375 102.414 271.26 103.067C270.172 103.693 269.29 104.621 268.617 105.848C267.968 107.05 267.645 108.447 267.645 110.04C267.645 111.659 267.968 113.083 268.617 114.31C269.29 115.512 270.172 116.439 271.26 117.092C272.375 117.719 273.58 118.032 274.876 118.032C276.198 118.032 277.403 117.719 278.491 117.092C279.606 116.439 280.486 115.512 281.135 114.31C281.783 113.083 282.107 111.646 282.107 110.001ZM293.917 103.302C294.616 102.074 295.654 101.056 297.027 100.246C298.426 99.4101 300.047 98.9922 301.886 98.9922C303.779 98.9922 305.489 99.4493 307.018 100.363C308.573 101.277 309.79 102.57 310.672 104.242C311.554 105.887 311.994 107.807 311.994 110.001C311.994 112.169 311.554 114.102 310.672 115.799C309.79 117.497 308.573 118.816 307.018 119.756C305.489 120.696 303.779 121.167 301.886 121.167C300.072 121.167 298.465 120.762 297.066 119.952C295.692 119.116 294.643 118.085 293.917 116.857V131H290.379V99.3448H293.917V103.302ZM308.378 110.001C308.378 108.382 308.055 106.971 307.407 105.77C306.758 104.568 305.878 103.654 304.763 103.027C303.674 102.401 302.469 102.087 301.148 102.087C299.852 102.087 298.647 102.414 297.532 103.067C296.444 103.693 295.562 104.621 294.889 105.848C294.24 107.05 293.917 108.447 293.917 110.04C293.917 111.659 294.24 113.083 294.889 114.31C295.562 115.512 296.444 116.439 297.532 117.092C298.647 117.719 299.852 118.032 301.148 118.032C302.469 118.032 303.674 117.719 304.763 117.092C305.878 116.439 306.758 115.512 307.407 114.31C308.055 113.083 308.378 111.646 308.378 110.001ZM335 99.3448L322.171 130.922H318.517L322.715 120.579L314.124 99.3448H318.05L324.737 116.739L331.346 99.3448H335Z" fill="black"/>
</svg>
